Coordinates
version=1
nRows=43
nColumns=12
inDegrees=yes

Units are S.I. units (second, meters, Newtons, ...)
Angles are in degrees

endheader
time	SC_y	SC_z	SC_x	AC_y	AC_z	AC_x	GH_y	GH_z	GH_yy	EL_x	PS_y
       0.0              -18.11          1.566          36.25          30.77         -1.051        -0.9105         -89.44         -5.886         -90.04          6.421          110.9
   0.04295              -18.12          1.568          36.24          30.77         -1.052        -0.9104          -89.4         -5.886         -90.05          6.422          110.9
   0.08591              -18.12           1.57          36.24          30.77         -1.054        -0.9102         -89.36         -5.885         -90.05          6.422          110.9
    0.1289              -18.13          1.572          36.24          30.78         -1.055        -0.9101         -89.32         -5.885         -90.05          6.422          110.9
    0.1718              -18.13          1.575          36.23          30.78         -1.057        -0.9099         -89.27         -5.884         -90.05          6.423          110.9
    0.2148              -18.14          1.577          36.23          30.78         -1.058        -0.9097         -89.23         -5.883         -90.05          6.423          110.8
    0.2577              -18.15           1.58          36.23          30.79          -1.06        -0.9095         -89.17         -5.883         -90.05          6.424          110.8
    0.3007              -18.15          1.583          36.22          30.79         -1.062        -0.9093         -89.12         -5.882         -90.06          6.425          110.8
    0.3436              -18.16          1.586          36.22           30.8         -1.064        -0.9091         -89.06         -5.881         -90.06          6.425          110.8
    0.3866              -18.17          1.589          36.22           30.8         -1.066        -0.9088         -88.99          -5.88         -90.06          6.426          110.8
    0.4295              -18.18          1.593          36.21          30.81         -1.068        -0.9086         -88.92         -5.879         -90.06          6.427          110.8
    0.4725              -18.19          1.596          36.21          30.81          -1.07        -0.9083         -88.85         -5.878         -90.06          6.428          110.7
    0.5154               -18.2          1.601           36.2          30.82         -1.073         -0.908         -88.77         -5.877         -90.07          6.428          110.7
    0.5584              -18.21          1.605           36.2          30.83         -1.076        -0.9077         -88.68         -5.876         -90.07          6.429          110.7
    0.6014              -18.23           1.61          36.19          30.83         -1.079        -0.9073         -88.59         -5.875         -90.07           6.43          110.7
    0.6443              -18.24          1.615          36.18          30.84         -1.082        -0.9069         -88.49         -5.873         -90.08          6.432          110.7
    0.6873              -18.25          1.621          36.18          30.85         -1.086        -0.9065         -88.38         -5.872         -90.08          6.433          110.6
    0.7302              -18.27          1.627          36.17          30.86          -1.09        -0.9061         -88.26          -5.87         -90.09          6.434          110.6
    0.7732              -18.29          1.634          36.16          30.87         -1.094        -0.9056         -88.13         -5.868         -90.09          6.436          110.6
    0.8161              -18.31          1.641          36.15          30.88         -1.099        -0.9051         -87.98         -5.866         -90.09          6.437          110.5
    0.8591              -18.33          1.649          36.14          30.89         -1.104        -0.9045         -87.83         -5.864          -90.1          6.439          110.5
     0.902              -18.35          1.658          36.13           30.9         -1.109        -0.9038         -87.65         -5.862         -90.11          6.441          110.4
     0.945              -18.38          1.668          36.12          30.92         -1.115        -0.9031         -87.46         -5.859         -90.11          6.443          110.4
    0.9879              -18.41          1.679          36.11          30.93         -1.122        -0.9023         -87.25         -5.856         -90.12          6.445          110.3
     1.031              -18.44          1.691          36.09          30.95          -1.13        -0.9014         -87.01         -5.853         -90.13          6.448          110.3
     1.074              -18.47          1.704          36.07          30.97         -1.139        -0.9004         -86.75          -5.85         -90.14          6.451          110.2
     1.117              -18.51          1.719          36.05           31.0         -1.148        -0.8993         -86.45         -5.846         -90.15          6.454          110.1
      1.16              -18.56          1.736          36.03          31.02         -1.159        -0.8981         -86.12         -5.841         -90.16          6.458          110.0
     1.203              -18.61          1.756          36.01          31.05         -1.171        -0.8967         -85.74         -5.836         -90.17          6.462          109.9
     1.246              -18.66          1.778          35.98          31.08         -1.185        -0.8951         -85.32          -5.83         -90.19          6.466          109.8
     1.289              -18.73          1.802          35.95          31.12         -1.201        -0.8933         -84.83         -5.823          -90.2          6.472          109.7
     1.332               -18.8          1.831          35.92          31.16         -1.219        -0.8912         -84.27         -5.816         -90.22          6.478          109.6
     1.375              -18.89          1.864          35.87          31.21          -1.24        -0.8888         -83.63         -5.807         -90.24          6.485          109.4
     1.417              -18.99          1.903          35.83          31.27         -1.264         -0.886         -82.88         -5.797         -90.27          6.493          109.2
      1.46              -19.11          1.947          35.77          31.33         -1.292        -0.8827          -82.0         -5.785          -90.3          6.503          109.0
     1.503              -19.25            2.0          35.71          31.41         -1.326        -0.8788         -80.97         -5.771         -90.34          6.514          108.7
     1.546              -19.41          2.063          35.63           31.5         -1.365        -0.8742         -79.74         -5.754         -90.38          6.527          108.4
     1.589              -19.61          2.139          35.53          31.62         -1.413        -0.8687         -78.27         -5.734         -90.43          6.543          108.0
     1.632              -19.85           2.23          35.42          31.75         -1.471        -0.8621         -76.49          -5.71         -90.49          6.563          107.5
     1.675              -20.14          2.342          35.28          31.92         -1.541        -0.8539         -74.31          -5.68         -90.57          6.587          106.9
     1.718               -20.5          2.479          35.11          32.12         -1.628        -0.8439         -71.63         -5.643         -90.66          6.616          106.2
     1.761              -20.95          2.651           34.9          32.37         -1.737        -0.8314         -68.28         -5.598         -90.77          6.653          105.4
     1.804              -21.52          2.867          34.63          32.69         -1.873        -0.8156         -64.07          -5.54         -90.92          6.699          104.3
